<svg xmlns="http://www.w3.org/2000/svg" width="19" height="20" fill="none"><g filter="url(#a)"><mask id="b" width="15" height="16" x="2" y="1" fill="#000" maskUnits="userSpaceOnUse"><path fill="#fff" d="M2 1h15v16H2z"/><path fill-rule="evenodd" d="M8 16s-2.206-1.699-2.982-3c-.776-1.301-2.247-2.959-1.988-4 .259-1.041 1.212-1.37 1.988-.588.776.78 1.299 2.472 1.816 2.212.517-.26.13-2.733-.388-4.164C5.93 5.028 5.39 2 6.446 2S7.503 3 8 4.5C8.497 6 8.109 8 8.497 8s.536-.35.536-1a.9.9 0 0 1 .104-.45c.188-.332.63-.48 1.348-.48.985 0 .497 1.93.994 1.93s.497.041.497-1 .46-.93 1.454-.93S13.943 8 14.46 8c.518 0 0-1 .497-1s.994.158.994 2.5.28 2.459-.497 3.5l-1.49 2s0 1-.534 1c-.533 0-.808-1-1.454-1-.647 0-.995 1-.995 1H8Zm5.963-2v-4h-.994v4h.994Zm-2.981-1c0 .27.23 1 .497 1 .274 0 .497-.725.497-1v-2c0-.27-.231-1-.498-1-.274 0-.496.725-.496 1v2Zm-1.988 0c0 .27.23 1 .497 1 .274 0 .497-.725.497-1v-2c0-.27-.23-1-.497-1-.275 0-.497.725-.497 1v2Z" clip-rule="evenodd"/></mask><path fill="#fff" fill-rule="evenodd" d="M8 16s-2.206-1.699-2.982-3c-.776-1.301-2.247-2.959-1.988-4 .259-1.041 1.212-1.37 1.988-.588.776.78 1.299 2.472 1.816 2.212.517-.26.13-2.733-.388-4.164C5.93 5.028 5.39 2 6.446 2S7.503 3 8 4.5C8.497 6 8.109 8 8.497 8s.536-.35.536-1a.9.9 0 0 1 .104-.45c.188-.332.63-.48 1.348-.48.985 0 .497 1.93.994 1.93s.497.041.497-1 .46-.93 1.454-.93S13.943 8 14.46 8c.518 0 0-1 .497-1s.994.158.994 2.5.28 2.459-.497 3.5l-1.49 2s0 1-.534 1c-.533 0-.808-1-1.454-1-.647 0-.995 1-.995 1H8Zm5.963-2v-4h-.994v4h.994Zm-2.981-1c0 .27.23 1 .497 1 .274 0 .497-.725.497-1v-2c0-.27-.231-1-.498-1-.274 0-.496.725-.496 1v2Zm-1.988 0c0 .27.23 1 .497 1 .274 0 .497-.725.497-1v-2c0-.27-.23-1-.497-1-.275 0-.497.725-.497 1v2Z" clip-rule="evenodd"/><path fill="#000" d="m8 16-.61.792.27.208H8v-1ZM3.03 9l.97.241L3.03 9Zm1.988-.588-.71.705.71-.705Zm1.816 2.212-.45-.894.45.894ZM6.446 6.46l.94-.34-.94.34Zm0-4.46V1v1Zm2.05 6v1-1Zm.537-1h-1 1Zm.104-.45-.87-.492.87.492Zm1.348-.48v-1 1ZM11.479 8V7v1Zm.497-1h-1 1Zm1.454-.93v-1 1ZM14.46 8v1-1Zm.497-1V6v1Zm.994 2.5h-1 1Zm-.497 3.5.802.598-.802-.598Zm-1.49 2-.802-.598-.199.266V15h1Zm-.534 1v-1 1Zm-1.454-1v-1 1Zm-.995 1v1h.712l.233-.672-.944-.328Zm2.982-2v1h1v-1h-1Zm0-4h1V9h-1v1Zm-.994 0V9h-1v1h1Zm0 4h-1v1h1v-1ZM8 16l.611-.792-.004-.003a11.865 11.865 0 0 1-.329-.264c-.21-.172-.497-.414-.806-.694-.645-.585-1.29-1.249-1.594-1.76l-1.718 1.025c.472.79 1.318 1.627 1.97 2.217a24.015 24.015 0 0 0 1.23 1.04l.022.016.006.005.002.002L8 16Zm-2.122-3.512a21.175 21.175 0 0 0-.708-1.08c-.247-.36-.48-.7-.68-1.027a4.673 4.673 0 0 1-.423-.832C3.983 9.314 4.003 9.23 4 9.24L2.06 8.76c-.132.53-.025 1.046.12 1.455.147.418.372.833.603 1.21.232.38.496.764.736 1.114.246.36.465.68.64.974l1.718-1.024ZM4 9.24c.068-.275.175-.279.127-.264-.019.006-.026 0-.008.006.023.007.09.035.189.134l1.418-1.41c-.585-.589-1.39-.89-2.194-.64-.785.245-1.283.926-1.473 1.692L4 9.24Zm.308-.124c.275.277.509.725.856 1.305.142.236.336.55.568.782.119.12.31.282.576.375.305.107.652.1.974-.062L6.385 9.73c.192-.096.41-.1.585-.038.135.047.194.115.18.1-.037-.036-.118-.146-.27-.398-.236-.396-.652-1.183-1.153-1.687L4.31 9.117Zm2.974 2.4c.376-.189.552-.515.633-.719a2.35 2.35 0 0 0 .144-.636c.038-.393.014-.85-.039-1.297-.105-.9-.348-1.952-.634-2.745l-1.881.68c.23.638.44 1.538.529 2.297.045.383.053.682.034.87-.01.098-.021.118-.011.092.005-.013.08-.205.327-.329l.898 1.787Zm.104-5.397a10.482 10.482 0 0 1-.534-2.499c-.03-.43-.005-.71.034-.844.018-.062.017-.013-.057.062A.56.56 0 0 1 6.446 3V1c-.4 0-.762.155-1.033.427a1.833 1.833 0 0 0-.445.787c-.14.48-.146 1.046-.11 1.551.075 1.037.361 2.242.648 3.035l1.88-.68ZM6.447 3c.096 0 .07.02.018-.02-.035-.026-.008-.026.054.113.064.145.127.345.215.656.083.292.183.664.317 1.065l1.898-.628c-.115-.349-.2-.665-.291-.982a7.063 7.063 0 0 0-.311-.922c-.133-.298-.335-.642-.683-.903C7.3 1.106 6.877 1 6.446 1v2Zm.604 1.814c.193.586.224 1.313.238 2.018.006.312.01.678.044.954.016.13.049.347.149.556.107.225.414.658 1.015.658V7c.503 0 .738.371.79.48.045.094.04.144.03.062-.017-.146-.02-.373-.028-.75-.013-.67-.037-1.692-.34-2.606l-1.898.628ZM8.497 9c.251 0 .525-.059.778-.218.252-.157.42-.374.527-.586.196-.386.23-.833.23-1.196h-2c0 .128-.007.216-.016.272-.01.06-.016.056.002.02a.54.54 0 0 1 .195-.204A.55.55 0 0 1 8.497 7v2Zm1.536-2c0-.024.002-.029 0-.02a.241.241 0 0 1-.025.062l-1.742-.984A1.896 1.896 0 0 0 8.033 7h2Zm-.025.042c-.054.095-.121.106-.064.087.074-.026.237-.06.54-.06v-2c-.738 0-1.733.13-2.218.99l1.742.983Zm.477.027a.457.457 0 0 1-.237-.076.414.414 0 0 1-.137-.136c-.006-.012.004.003.02.065.015.06.028.14.042.243.018.139.051.514.102.747.028.126.086.355.233.57.18.263.51.518.97.518V7c.337 0 .573.195.68.352.076.11.083.187.071.133-.028-.13-.028-.236-.073-.58-.032-.247-.095-.658-.296-1.02a1.596 1.596 0 0 0-.528-.573 1.548 1.548 0 0 0-.847-.243v2ZM11.479 9c.055 0 .279.007.462-.025a1.172 1.172 0 0 0 .86-.624c.14-.27.158-.56.165-.701.01-.177.01-.402.01-.65h-2c0 .273 0 .432-.007.541l-.004.055c.001-.006.013-.075.06-.166a.828.828 0 0 1 .566-.424c.043-.008.065-.007.032-.006h-.144v2Zm1.497-2c0-.096.005-.156.01-.19.005-.035.008-.028-.005.002a.51.51 0 0 1-.257.252c-.038.016-.056.016-.036.013.02-.003.058-.007.128-.01h.257l.357.002v-2c-.199 0-.478-.007-.679 0a2.244 2.244 0 0 0-.814.156 1.487 1.487 0 0 0-.792.794c-.138.32-.17.668-.17.981h2Zm.454.07a.446.446 0 0 1-.228-.074.404.404 0 0 1-.134-.131c-.006-.011.004.004.02.067.017.06.031.14.046.243.02.142.057.517.114.755.031.13.096.36.25.574.19.26.519.496.962.496V7a.82.82 0 0 1 .658.33c.078.108.088.187.076.136-.03-.123-.032-.231-.08-.572-.035-.246-.102-.656-.307-1.017a1.606 1.606 0 0 0-.532-.568c-.259-.165-.55-.24-.845-.24v2ZM14.46 9c.23 0 .504-.058.751-.244.241-.182.362-.414.422-.59.057-.167.073-.322.079-.42.006-.1.005-.199.004-.256v-.122c.002-.023.003.018-.02.088a.778.778 0 0 1-.26.37.782.782 0 0 1-.479.174V6c-.236 0-.516.063-.764.26-.24.19-.351.427-.404.596a1.642 1.642 0 0 0-.07.408c-.005.097-.003.193-.002.246l-.001.11c-.001.02-.001-.026.024-.1a.773.773 0 0 1 .268-.362A.764.764 0 0 1 14.46 7v2Zm.497-1c.085 0 .04.01-.038-.024-.106-.046-.151-.117-.15-.115.013.024.065.135.109.416.043.275.073.668.073 1.223h2c0-1.18-.114-2.04-.438-2.618a1.677 1.677 0 0 0-.787-.736A1.874 1.874 0 0 0 14.957 6v2Zm-.006 1.5c0 .606.018 1.07.032 1.428.015.375.022.585.012.75a.74.74 0 0 1-.055.272c-.037.086-.11.215-.287.452l1.603 1.196a4.26 4.26 0 0 0 .523-.861c.137-.32.194-.623.213-.939.017-.287.003-.61-.01-.949a31.89 31.89 0 0 1-.03-1.349h-2Zm-.299 2.902a9383.383 9383.383 0 0 0-1.367 1.834l-.091.123-.024.032-.006.009-.002.002.801.598.802.598v-.001l.002-.002.006-.008.024-.033.092-.122.33-.444 1.037-1.39-1.604-1.196ZM13.963 15h-1v-.006s0-.001 0 0a.654.654 0 0 1-.004.074 1.08 1.08 0 0 1-.029.174c-.017.064-.021.038.027-.023a.634.634 0 0 1 .473-.22v2.001c.5 0 .867-.254 1.09-.532.198-.248.293-.524.343-.71a3.085 3.085 0 0 0 .1-.746V15h-1Zm-.533 0c.202 0 .308.1.285.08-.037-.03-.08-.08-.213-.234-.104-.12-.28-.323-.502-.49A1.696 1.696 0 0 0 11.977 14v2c-.118 0-.186-.052-.175-.044.027.021.075.067.188.198.083.096.249.296.434.453.198.168.539.393 1.007.393v-2Zm-1.454-1c-.861 0-1.37.645-1.57.943a3.442 3.442 0 0 0-.368.727v.001c-.001 0-.001.001.944.329l.944.329v.001l-.001.002a.028.028 0 0 1-.001.003l.004-.012.028-.065c.028-.06.066-.134.11-.201a.74.74 0 0 1 .06-.077c.017-.02.026-.027.026-.027a.315.315 0 0 1-.176.047v-2Zm-.995 1H8v2h2.982v-2Zm3.982-1v-4h-2v4h2Zm-1-5h-.994v2h.994V9Zm-1.994 1v4h2v-4h-2Zm1 5h.994v-2h-.994v2Zm-2.987-2c0 .316.106.703.226.99.065.152.162.348.305.523.114.14.435.487.966.487v-2c.203 0 .355.07.443.127a.6.6 0 0 1 .142.124c.025.03.015.026-.012-.037a1.235 1.235 0 0 1-.07-.24c-.003-.016 0-.005 0 .026h-2Zm1.497 2c.522 0 .843-.333.965-.482.146-.178.245-.376.309-.53.121-.291.223-.676.223-.988h-2c0-.04.004-.027-.013.043a1.178 1.178 0 0 1-.056.175c-.026.062-.035.062-.007.029a.605.605 0 0 1 .146-.125.813.813 0 0 1 .433-.122v2Zm1.497-2v-2h-2v2h2Zm0-2c0-.316-.107-.703-.227-.99a2.163 2.163 0 0 0-.305-.523C12.33 9.347 12.01 9 11.478 9v2a.821.821 0 0 1-.443-.127.6.6 0 0 1-.142-.124c-.025-.03-.015-.026.012.037a1.235 1.235 0 0 1 .07.24c.003.016 0 .005 0-.026h2Zm-1.498-2c-.522 0-.843.333-.965.482a2.123 2.123 0 0 0-.309.53c-.121.291-.222.676-.222.988h2c0 .04-.005.027.012-.043.014-.059.034-.123.056-.175.026-.062.035-.062.007-.029a.605.605 0 0 1-.146.125.814.814 0 0 1-.432.122V9Zm-1.496 2v2h2v-2h-2Zm-1.988 2c0 .316.106.703.227.99.064.152.161.348.304.523.114.14.435.487.966.487v-2c.203 0 .355.07.443.127a.605.605 0 0 1 .142.124c.025.03.015.026-.012-.037a1.223 1.223 0 0 1-.07-.24c-.003-.016 0-.005 0 .026h-2Zm1.497 2c.522 0 .843-.333.965-.482.146-.178.245-.376.309-.53.121-.291.223-.676.223-.988h-2c0-.04.004-.027-.013.043a1.184 1.184 0 0 1-.056.175c-.026.062-.034.062-.007.029a.606.606 0 0 1 .146-.125.814.814 0 0 1 .433-.122v2Zm1.497-2v-2h-2v2h2Zm0-2c0-.316-.107-.703-.227-.99a2.166 2.166 0 0 0-.305-.523c-.114-.14-.435-.487-.965-.487v2a.821.821 0 0 1-.444-.127.603.603 0 0 1-.142-.124c-.025-.03-.014-.026.012.037a1.225 1.225 0 0 1 .071.24c.002.016 0 .005 0-.026h2ZM9.49 9c-.522 0-.843.333-.966.482a2.126 2.126 0 0 0-.309.53c-.121.291-.222.676-.222.988h2c0 .04-.005.027.012-.043.014-.059.034-.123.056-.175.026-.062.035-.062.007-.029a.606.606 0 0 1-.146.125.814.814 0 0 1-.432.122V9Zm-1.497 2v2h2v-2h-2Z" mask="url(#b)"/></g><defs><filter id="a" width="19" height="20" x="0" y="0" color-interpolation-filters="sRGB" filterUnits="userSpaceOnUse"><feFlood flood-opacity="0" result="BackgroundImageFix"/><feColorMatrix in="SourceAlpha" result="hardAlpha" values="0 0 0 0 0 0 0 0 0 0 0 0 0 0 0 0 0 0 127 0"/><feOffset dy="1"/><feGaussianBlur stdDeviation="1"/><feColorMatrix values="0 0 0 0 0 0 0 0 0 0 0 0 0 0 0 0 0 0 1 0"/><feBlend in2="BackgroundImageFix" result="effect1_dropShadow_0_8144"/><feBlend in="SourceGraphic" in2="effect1_dropShadow_0_8144" result="shape"/></filter></defs></svg>